HIERARCHY
ROOT Root
{
  OFFSET 0.0 0.0 0.0
  CHANNELS 6 Xposition Yposition Zposition Zrotation Yrotation Xrotation
  JOINT Hips
  {
    OFFSET 0.0 100.0 0.0
    CHANNELS 6 Xposition Yposition Zposition Zrotation Yrotation Xrotation
    JOINT Spine1
    {
      OFFSET -0.013727 5.003763 -0.053727
      CHANNELS 3 Zrotation Yrotation Xrotation
      JOINT Spine2
      {
        OFFSET -0.0 7.125301 -0.029825
        CHANNELS 3 Zrotation Yrotation Xrotation
        JOINT Chest
        {
          OFFSET -1e-06 7.550063 -0.815971
          CHANNELS 3 Zrotation Yrotation Xrotation
          JOINT Neck1
          {
            OFFSET -0.181677 26.311295 -0.553348
            CHANNELS 3 Zrotation Yrotation Xrotation
            JOINT Neck2
            {
              OFFSET -3e-06 7.709397 2.302585
              CHANNELS 3 Zrotation Yrotation Xrotation
              JOINT Head
              {
                OFFSET -5e-06 6.128916 1.953709
                CHANNELS 3 Zrotation Yrotation Xrotation
                JOINT HeadEnd
                {
                  OFFSET 0.003598 16.065403 -1.835379
                  CHANNELS 3 Zrotation Yrotation Xrotation
                }
                JOINT Jaw
                {
                  OFFSET 0.002637 0.475592 3.094941
                  CHANNELS 3 Zrotation Yrotation Xrotation
                }
                JOINT LeftEye
                {
                  OFFSET 3.206381 5.380205 7.586883
                  CHANNELS 3 Zrotation Yrotation Xrotation
                }
                JOINT RightEye
                {
                  OFFSET -3.22244 5.361869 7.558234
                  CHANNELS 3 Zrotation Yrotation Xrotation
                }
              }
            }
          }
          JOINT LeftShoulder
          {
            OFFSET 1.621652 23.237164 5.113413
            CHANNELS 3 Zrotation Yrotation Xrotation
            JOINT LeftArm
            {
              OFFSET 14.919846 2e-06 -5.502326
              CHANNELS 3 Zrotation Yrotation Xrotation
              JOINT LeftForeArm
              {
                OFFSET 28.739307 0.0 -0.002588
                CHANNELS 3 Zrotation Yrotation Xrotation
                JOINT LeftHand
                {
                  OFFSET 27.093981 -1e-06 0.002609
                  CHANNELS 3 Zrotation Yrotation Xrotation
                  JOINT LeftHandThumb1
                  {
                    OFFSET 2.276482 -1.392045 3.191413
                    CHANNELS 3 Zrotation Yrotation Xrotation
                    JOINT LeftHandThumb2
                    {
                      OFFSET 4.012836 -1.828127 1.641654
                      CHANNELS 3 Zrotation Yrotation Xrotation
                      JOINT LeftHandThumb3
                      {
                        OFFSET 2.798515 0.0 -3e-06
                        CHANNELS 3 Zrotation Yrotation Xrotation
                        JOINT LeftHandThumbEnd
                        {
                          OFFSET 3.180793 -4e-06 4e-06
                          CHANNELS 3 Zrotation Yrotation Xrotation
                        }
                      }
                    }
                  }
                  JOINT LeftHandIndex1
                  {
                    OFFSET 3.247555 -0.531998 2.296169
                    CHANNELS 3 Zrotation Yrotation Xrotation
                    JOINT LeftHandIndex2
                    {
                      OFFSET 6.364578 0.01206 0.1786
                      CHANNELS 3 Zrotation Yrotation Xrotation
                      JOINT LeftHandIndex3
                      {
                        OFFSET 3.662364 0.0 0.0
                        CHANNELS 3 Zrotation Yrotation Xrotation
                        JOINT LeftHandIndex4
                        {
                          OFFSET 2.329242 4e-06 4e-06
                          CHANNELS 3 Zrotation Yrotation Xrotation
                          JOINT LeftHandIndexEnd
                          {
                            OFFSET 2.759615 -0.180537 -0.113024
                            CHANNELS 3 Zrotation Yrotation Xrotation
                          }
                        }
                      }
                    }
                  }
                  JOINT LeftHandMiddle1
                  {
                    OFFSET 3.163495 0.240981 1.000332
                    CHANNELS 3 Zrotation Yrotation Xrotation
                    JOINT LeftHandMiddle2
                    {
                      OFFSET 6.19078 -0.259278 -1.002548
                      CHANNELS 3 Zrotation Yrotation Xrotation
                      JOINT LeftHandMiddle3
                      {
                        OFFSET 4.35652 -4e-06 -1e-06
                        CHANNELS 3 Zrotation Yrotation Xrotation
                        JOINT LeftHandMiddle4
                        {
                          OFFSET 2.996877 -8e-06 0.0
                          CHANNELS 3 Zrotation Yrotation Xrotation
                          JOINT LeftHandMiddleEnd
                          {
                            OFFSET 2.304287 -0.294569 -0.031741
                            CHANNELS 3 Zrotation Yrotation Xrotation
                          }
                        }
                      }
                    }
                  }
                  JOINT LeftHandRing1
                  {
                    OFFSET 2.882643 -0.053652 -0.322543
                    CHANNELS 3 Zrotation Yrotation Xrotation
                    JOINT LeftHandRing2
                    {
                      OFFSET 5.854541 -0.486202 -1.373841
                      CHANNELS 3 Zrotation Yrotation Xrotation
                      JOINT LeftHandRing3
                      {
                        OFFSET 4.350578 0.0 3e-06
                        CHANNELS 3 Zrotation Yrotation Xrotation
                        JOINT LeftHandRing4
                        {
                          OFFSET 2.651321 7e-06 2e-06
                          CHANNELS 3 Zrotation Yrotation Xrotation
                          JOINT LeftHandRingEnd
                          {
                            OFFSET 1.936105 0.077687 -7.1e-05
                            CHANNELS 3 Zrotation Yrotation Xrotation
                          }
                        }
                      }
                    }
                  }
                  JOINT LeftHandPinky1
                  {
                    OFFSET 2.8655 -0.310005 -1.600378
                    CHANNELS 3 Zrotation Yrotation Xrotation
                    JOINT LeftHandPinky2
                    {
                      OFFSET 5.087849 -1.331141 -1.77123
                      CHANNELS 3 Zrotation Yrotation Xrotation
                      JOINT LeftHandPinky3
                      {
                        OFFSET 3.070974 4e-06 0.0
                        CHANNELS 3 Zrotation Yrotation Xrotation
                        JOINT LeftHandPinky4
                        {
                          OFFSET 1.549672 0.0 1e-06
                          CHANNELS 3 Zrotation Yrotation Xrotation
                          JOINT LeftHandPinkyEnd
                          {
                            OFFSET 1.944893 -0.157802 0.057219
                            CHANNELS 3 Zrotation Yrotation Xrotation
                          }
                        }
                      }
                    }
                  }
                }
              }
            }
          }
          JOINT RightShoulder
          {
            OFFSET -1.380118 23.180309 5.214158
            CHANNELS 3 Zrotation Yrotation Xrotation
            JOINT RightArm
            {
              OFFSET -15.037196 1.2e-05 -5.545604
              CHANNELS 3 Zrotation Yrotation Xrotation
              JOINT RightForeArm
              {
                OFFSET -28.736639 2e-06 -0.002597
                CHANNELS 3 Zrotation Yrotation Xrotation
                JOINT RightHand
                {
                  OFFSET -27.133619 -0.0 0.002613
                  CHANNELS 3 Zrotation Yrotation Xrotation
                  JOINT RightHandThumb1
                  {
                    OFFSET -2.274032 -1.383988 3.163127
                    CHANNELS 3 Zrotation Yrotation Xrotation
                    JOINT RightHandThumb2
                    {
                      OFFSET -4.011429 -1.827466 1.640914
                      CHANNELS 3 Zrotation Yrotation Xrotation
                      JOINT RightHandThumb3
                      {
                        OFFSET -2.794935 -4e-06 -3e-06
                        CHANNELS 3 Zrotation Yrotation Xrotation
                        JOINT RightHandThumbEnd
                        {
                          OFFSET -3.183852 4e-06 1e-06
                          CHANNELS 3 Zrotation Yrotation Xrotation
                        }
                      }
                    }
                  }
                  JOINT RightHandIndex1
                  {
                    OFFSET -3.253266 -0.520057 2.282866
                    CHANNELS 3 Zrotation Yrotation Xrotation
                    JOINT RightHandIndex2
                    {
                      OFFSET -6.341917 0.012471 0.178266
                      CHANNELS 3 Zrotation Yrotation Xrotation
                      JOINT RightHandIndex3
                      {
                        OFFSET -3.654871 -8e-06 -0.0
                        CHANNELS 3 Zrotation Yrotation Xrotation
                        JOINT RightHandIndex4
                        {
                          OFFSET -2.327586 0.0 1e-06
                          CHANNELS 3 Zrotation Yrotation Xrotation
                          JOINT RightHandIndexEnd
                          {
                            OFFSET -2.76179 -0.180656 -0.113078
                            CHANNELS 3 Zrotation Yrotation Xrotation
                          }
                        }
                      }
                    }
                  }
                  JOINT RightHandMiddle1
                  {
                    OFFSET -3.168106 0.246593 1.00103
                    CHANNELS 3 Zrotation Yrotation Xrotation
                    JOINT RightHandMiddle2
                    {
                      OFFSET -6.180828 -0.258836 -1.000895
                      CHANNELS 3 Zrotation Yrotation Xrotation
                      JOINT RightHandMiddle3
                      {
                        OFFSET -4.348901 0.0 -0.0
                        CHANNELS 3 Zrotation Yrotation Xrotation
                        JOINT RightHandMiddle4
                        {
                          OFFSET -3.00024 -4e-06 -2e-06
                          CHANNELS 3 Zrotation Yrotation Xrotation
                          JOINT RightHandMiddleEnd
                          {
                            OFFSET -2.30252 -0.29437 -0.031706
                            CHANNELS 3 Zrotation Yrotation Xrotation
                          }
                        }
                      }
                    }
                  }
                  JOINT RightHandRing1
                  {
                    OFFSET -2.88569 -0.067952 -0.308858
                    CHANNELS 3 Zrotation Yrotation Xrotation
                    JOINT RightHandRing2
                    {
                      OFFSET -5.854198 -0.48613 -1.373731
                      CHANNELS 3 Zrotation Yrotation Xrotation
                      JOINT RightHandRing3
                      {
                        OFFSET -4.33881 -4e-06 -0.0
                        CHANNELS 3 Zrotation Yrotation Xrotation
                        JOINT RightHandRing4
                        {
                          OFFSET -2.654903 -4e-06 4e-06
                          CHANNELS 3 Zrotation Yrotation Xrotation
                          JOINT RightHandRingEnd
                          {
                            OFFSET -1.933568 0.077527 -5.2e-05
                            CHANNELS 3 Zrotation Yrotation Xrotation
                          }
                        }
                      }
                    }
                  }
                  JOINT RightHandPinky1
                  {
                    OFFSET -2.866425 -0.342796 -1.584145
                    CHANNELS 3 Zrotation Yrotation Xrotation
                    JOINT RightHandPinky2
                    {
                      OFFSET -5.091371 -1.332055 -1.772385
                      CHANNELS 3 Zrotation Yrotation Xrotation
                      JOINT RightHandPinky3
                      {
                        OFFSET -3.062664 -4e-06 1e-06
                        CHANNELS 3 Zrotation Yrotation Xrotation
                        JOINT RightHandPinky4
                        {
                          OFFSET -1.546529 4e-06 -2e-06
                          CHANNELS 3 Zrotation Yrotation Xrotation
                          JOINT RightHandPinkyEnd
                          {
                            OFFSET -1.945119 -0.157718 0.057211
                            CHANNELS 3 Zrotation Yrotation Xrotation
                          }
                        }
                      }
                    }
                  }
                }
              }
            }
          }
        }
      }
    }
    JOINT LeftLeg
    {
      OFFSET 10.043214 -8.434526 2.595655
      CHANNELS 3 Zrotation Yrotation Xrotation
      JOINT LeftShin
      {
        OFFSET -1e-06 -43.221752 -0.802913
        CHANNELS 3 Zrotation Yrotation Xrotation
        JOINT LeftFoot
        {
          OFFSET 1e-06 -42.155094 -3.481523
          CHANNELS 3 Zrotation Yrotation Xrotation
          JOINT LeftToeBase
          {
            OFFSET 0.0 -5.059472 13.231529
            CHANNELS 3 Zrotation Yrotation Xrotation
            JOINT LeftToeEnd
            {
              OFFSET -0.009607 -1.647619 6.513017
              CHANNELS 3 Zrotation Yrotation Xrotation
            }
          }
        }
      }
    }
    JOINT RightLeg
    {
      OFFSET -10.047278 -8.29526 2.620317
      CHANNELS 3 Zrotation Yrotation Xrotation
      JOINT RightShin
      {
        OFFSET 1e-06 -43.362206 -0.805556
        CHANNELS 3 Zrotation Yrotation Xrotation
        JOINT RightFoot
        {
          OFFSET 2e-06 -42.117393 -3.478398
          CHANNELS 3 Zrotation Yrotation Xrotation
          JOINT RightToeBase
          {
            OFFSET -0.0 -5.079609 13.284196
            CHANNELS 3 Zrotation Yrotation Xrotation
            JOINT RightToeEnd
            {
              OFFSET 0.009532 -1.634378 6.460591
              CHANNELS 3 Zrotation Yrotation Xrotation
            }
          }
        }
      }
    }
  }
}
MOTION
Frames: 4
Frame Time: 0.03333333333333333
0.0 0.0 0.0 0.0 -0.0 0.0 0.777743 12.95641 -5.95523 -1.717775 -3.348094 -75.439331 -1.409371 -0.592542 28.356133 -0.76295 0.213654 7.737711 -2.498693 -2.024493 34.772358 -4.271925 7.772618 29.500626 0.592413 2.023631 -3.720531 2.916114 1.15803 -3.769099 7.7e-05 -2.3e-05 6e-06 -0.080277 0.066966 -0.017826 0.737021 -3.561284 -10.775383 -0.906319 3.705503 -10.734037 11.281109 -12.903419 19.854752 -95.822701 17.624693 -11.078721 2.827801 -24.136066 -0.356558 64.154503 3.898107 -31.602139 -5.882108 9.861286 0.702591 -10.936877 -0.360576 7.15621 -0.0 8.774827 -1e-06 -15.512484 17.909796 6.687706 -1.844032 2.498505 -2.507278 -10.163604 4.678945 4.621112 -20.976038 -4e-06 5e-06 -21.226295 2.451698 -3.593998 0.0 -6e-06 -0.0 -1.362682 2.240799 -0.746322 -21.334925 0.584908 3.008326 -13.82122 -3e-06 3e-06 -23.887184 -0.249078 -0.839481 -60.171078 2.830804 -1.051822 -0.294025 1.679688 0.833256 -14.218215 0.093214 1.300581 -34.212067 -0.287563 0.967175 -20.033226 0.964538 1.212846 0.0 1e-06 0.0 -3.44039 0.788233 0.501656 -15.928192 -3.167311 2.999708 -6.338828 -2e-06 2e-06 -18.123453 3.648182 -4.90567 -6e-06 1e-06 -2e-06 -8.751189 15.386871 17.774422 92.609993 -8.482134 -13.855196 -3.14767 24.882099 -0.849197 -61.631073 -45.032925 -5.310349 2.243542 -5.255041 -3.18016 14.2829 -0.826596 6.952508 -4e-06 -12.690607 1e-06 14.082243 -17.613609 4.595872 1.665667 -1.955922 -2.8783 4.727801 -4.170588 4.993927 11.020532 3e-06 -0.0 12.109058 -3.735715 -2.866782 1e-06 -0.0 -0.0 1.291986 -1.92855 -1.49809 14.80014 0.56747 3.865612 14.242579 -1.341734 -6.660659 19.631981 0.143925 -0.648243 47.581268 -0.515248 -6.149161 0.353029 -1.511152 -0.03194 20.222803 3.684314 2.316633 18.787285 7e-06 2e-06 10.751634 -0.479869 1.397906 1e-06 -0.0 1e-06 3.273809 0.305947 -0.580111 21.486828 11.830377 2.266135 8.16293 2e-06 1e-06 18.399092 -3.798982 -4.940573 2e-06 -0.0 -0.0 24.999306 8.108107 -72.613785 -0.406693 -0.653155 136.624283 -4.77836 -23.913643 17.381605 1.704447 -1.864453 -4.530372 -0.0 0.0 2e-06 -22.496813 -5.604241 -67.883957 0.528443 0.247384 132.940201 -3.806474 14.214976 9.590629 -1.478487 0.922549 -1.91646 0.0 -0.0 -1e-06 
0.0 0.0 0.0 0.0 -0.0 0.0 0.669541 13.138252 -5.871253 -1.244725 -3.347216 -75.562035 -1.300731 -0.685506 28.195911 -0.797318 0.208106 7.775159 -2.836672 -2.046587 34.901871 -4.620493 7.961455 30.190542 0.574738 2.115727 -3.723151 2.761387 1.021277 -2.971429 7.7e-05 -2.3e-05 6e-06 -0.07275 0.04895 -0.010249 0.720599 -3.576209 -10.689735 -0.874759 3.683294 -10.653111 10.485803 -12.963863 20.48675 -94.827148 16.814518 -9.067554 2.765729 -22.723114 -0.263093 64.268539 6.42097 -31.390734 -5.88211 9.86129 0.702591 -10.93688 -0.360575 7.156209 0.0 8.77483 0.0 -15.346942 17.833654 6.714761 -1.844034 2.498506 -2.507279 -10.163604 4.678947 4.621111 -20.976038 -5e-06 1e-06 -21.226299 2.451697 -3.594003 0.0 -6e-06 0.0 -1.362682 2.240799 -0.746324 -21.334927 0.584909 3.008324 -13.821221 -3e-06 2e-06 -23.887184 -0.249081 -0.839484 -60.376816 2.804161 -1.097839 -0.294025 1.679688 0.833257 -14.218217 0.093215 1.300582 -34.212067 -0.287565 0.967171 -20.033222 0.964537 1.212844 -0.0 0.0 0.0 -3.44039 0.788233 0.501655 -15.928196 -3.167311 2.999709 -6.338829 -2e-06 1e-06 -18.123459 3.648185 -4.905674 -5e-06 1e-06 -2e-06 -8.939401 15.094765 17.876793 92.041977 -7.96939 -14.467473 -2.388646 24.339321 -0.625574 -61.727383 -44.086021 -6.189877 2.243544 -5.255038 -3.180159 14.282896 -0.826595 6.952504 -5e-06 -12.690608 3e-06 14.290989 -17.418989 4.528887 1.665667 -1.955922 -2.8783 4.7278 -4.17059 4.993926 11.020531 5e-06 -3e-06 12.109058 -3.735714 -2.866787 2e-06 1e-06 -1e-06 1.291987 -1.928551 -1.49809 14.800136 0.567466 3.865608 14.242579 -1.341736 -6.660662 19.631975 0.143928 -0.648248 47.848503 -0.471448 -6.066576 0.353029 -1.511152 -0.03194 20.222803 3.684313 2.316629 18.787287 7e-06 -2e-06 10.751636 -0.479868 1.397906 2e-06 -0.0 1e-06 3.273809 0.305947 -0.580112 21.486824 11.830379 2.266129 8.16293 3e-06 -2e-06 18.39909 -3.798985 -4.940579 2e-06 1e-06 -1e-06 26.593596 8.405173 -71.755249 -0.487901 -0.559169 136.551285 -5.020779 -24.64119 16.949087 1.715197 -1.847357 -4.347989 0.0 0.0 2e-06 -20.805897 -5.702275 -68.426346 0.450053 0.202205 133.64595 -4.075567 13.454913 10.128426 -1.46214 0.908367 -2.159035 0.0 -0.0 -1e-06 
0.0 0.0 0.0 0.0 -0.0 0.0 0.398768 13.10094 -5.361213 -0.38027 -3.485588 -75.377464 -1.408818 -0.55015 27.995205 -0.825829 0.266172 7.699232 -3.03518 -1.928008 34.57584 -4.933314 8.156103 31.274403 0.430516 1.984613 -3.648556 2.387782 1.043938 -2.044526 7.7e-05 -2.3e-05 6e-06 -0.105493 0.12078 0.006174 0.624792 -3.501953 -10.532273 -0.842358 3.745405 -10.493846 9.26875 -12.796136 21.522585 -93.534882 16.185055 -7.262823 2.552945 -22.135418 -0.189832 63.677643 8.301913 -30.35063 -5.882108 9.861287 0.70259 -10.936877 -0.360575 7.156208 1e-06 8.774828 -1e-06 -16.002892 17.829065 6.431421 -1.844033 2.498505 -2.507277 -10.163605 4.678946 4.621111 -20.976032 -4e-06 4e-06 -21.226295 2.451697 -3.593998 1e-06 -6e-06 0.0 -1.362682 2.240798 -0.746323 -21.334925 0.584909 3.008326 -13.82122 -3e-06 3e-06 -23.887178 -0.249079 -0.839481 -60.66251 2.746575 -1.167285 -0.294025 1.679688 0.833256 -14.218215 0.093214 1.300582 -34.212063 -0.287564 0.967175 -20.033222 0.964538 1.212846 0.0 -1e-06 0.0 -3.44039 0.788233 0.501655 -15.928198 -3.16731 2.999709 -6.338829 -1e-06 2e-06 -18.123453 3.648182 -4.905669 -5e-06 0.0 -2e-06 -8.624591 14.614267 17.700418 90.847679 -7.946165 -14.353327 -1.573912 23.484224 -0.423904 -62.149551 -43.803612 -6.356219 2.243543 -5.255039 -3.180161 14.282896 -0.826593 6.952507 -4e-06 -12.690611 -1e-06 14.342815 -17.578058 4.346082 1.665666 -1.955922 -2.878301 4.7278 -4.170588 4.993928 11.020534 4e-06 -1e-06 12.10906 -3.735715 -2.866785 2e-06 0.0 -0.0 1.291986 -1.928551 -1.49809 14.800138 0.56747 3.865611 14.242579 -1.341734 -6.660661 19.631975 0.143926 -0.648244 48.085777 -0.424266 -6.149865 0.353029 -1.511151 -0.031941 20.222803 3.684313 2.316633 18.787285 9e-06 3e-06 10.751636 -0.479867 1.397907 1e-06 0.0 0.0 3.273809 0.305946 -0.580111 21.486828 11.830385 2.266137 8.162933 4e-06 1e-06 18.399092 -3.798984 -4.940574 3e-06 1e-06 -0.0 28.458361 8.895104 -70.814606 -0.423646 -0.654916 136.854919 -6.756737 -25.806507 15.346342 1.657329 -1.820415 -4.476909 0.0 0.0 2e-06 -19.124502 -5.259181 -69.600861 0.369085 0.208478 134.800598 -3.464381 12.083673 10.271294 -1.425942 0.935267 -2.291196 -0.0 1e-06 -1e-06 
0.0 0.0 0.0 0.0 -0.0 0.0 0.080998 13.199514 -4.757624 0.076231 -3.534683 -74.959099 -1.285261 -0.518291 27.706758 -0.806436 0.271059 7.613002 -3.168183 -1.799134 34.389919 -5.169956 8.462379 32.035362 0.372369 1.933606 -3.619451 2.118016 0.886548 -1.196853 7.7e-05 -2.3e-05 5e-06 -0.121352 0.149741 -0.00534 0.590387 -3.476662 -10.469499 -0.839819 3.777953 -10.425747 7.969254 -12.298205 21.819899 -92.128174 16.012804 -6.465787 2.367471 -21.381271 -0.197666 63.413868 8.900135 -29.615725 -5.882106 9.861288 0.702591 -10.936875 -0.360577 7.156209 3e-06 8.774828 -2e-06 -16.223463 17.825747 6.46117 -1.844033 2.498505 -2.507278 -10.163604 4.678944 4.62111 -20.976027 -7e-06 6e-06 -21.226292 2.451696 -3.593997 1e-06 -6e-06 -0.0 -1.362681 2.240799 -0.746323 -21.334921 0.584906 3.008328 -13.821218 -4e-06 4e-06 -23.887177 -0.249081 -0.839478 -61.035889 2.750852 -1.156599 -0.294024 1.679688 0.833256 -14.218212 0.093212 1.300582 -34.212063 -0.287567 0.967178 -20.033216 0.964537 1.212849 -0.0 -0.0 0.0 -3.440388 0.788233 0.501656 -15.928192 -3.167314 2.999711 -6.338827 -3e-06 2e-06 -18.123451 3.648182 -4.905669 -5e-06 1e-06 -2e-06 -8.517619 14.351912 17.817438 90.349648 -7.625004 -14.097346 -1.310203 22.455961 -0.296168 -61.958511 -44.153885 -6.890798 2.243543 -5.255041 -3.180159 14.282896 -0.826597 6.952506 -1e-06 -12.690609 -1e-06 14.446615 -17.680536 4.239799 1.665667 -1.955922 -2.8783 4.727801 -4.170589 4.993926 11.020529 3e-06 -2e-06 12.109056 -3.735717 -2.866786 2e-06 0.0 -1e-06 1.291986 -1.92855 -1.49809 14.800134 0.567468 3.86561 14.242579 -1.341738 -6.660661 19.631973 0.143924 -0.648245 48.350063 -0.408518 -6.177376 0.353029 -1.511151 -0.03194 20.222801 3.684309 2.316632 18.787277 5e-06 0.0 10.751633 -0.47987 1.397907 1e-06 1e-06 1e-06 3.273808 0.305947 -0.580111 21.486824 11.830382 2.266136 8.16293 2e-06 0.0 18.399092 -3.798988 -4.940577 3e-06 1e-06 -1e-06 29.539616 9.63204 -70.523697 -0.460413 -0.594449 137.346756 -6.948126 -26.685545 14.339745 1.63367 -1.853565 -4.658159 0.0 0.0 2e-06 -18.994772 -5.214873 -70.43129 0.397106 0.187926 135.764496 -3.385382 12.138132 9.604883 -1.422842 0.956171 -2.377206 -0.0 0.0 -1e-06 
